{"title":"Inception (2010) &amp; BluRay Xtras 1080p","uid":12176272,"size":6531677161,"categoryP":"video","categoryS":"hd___movies","magnet":"?xt=urn:btih:656bc2894facdaf9783e7ca3a2b20ef1fc971a0c&amp;dn=Inception+%282010%29+%26amp%3B+BluRay+Xtras+1080p&amp;tr=udp%3A%2F%2Ftracker.openbittorrent.com%3A80&amp;tr=udp%3A%2F%2Fopen.demonii.com%3A1337&amp;tr=udp%3A%2F%2Ftracker.coppersurfer.tk%3A6969&amp;tr=udp%3A%2F%2Fexodus.desync.com%3A6969","seeders":3,"leechers":2,"uploader":"AlienMethod","files":22,"time":1438317900,"description":"x264/mp4\n6-Channel AC3@448kbps (audio 1)\n2-Channel AAC@128kbps (audio 2)\nEnglish Subs\nBluRay Xtras Incl.\n\n\n&quot;A thief who steals corporate secrets through use of dream-sharing technology\nis given the inverse task of planting an idea into the mind of a CEO.&quot;\n\n\n\n\nGeneral\nComplete name : F:TorrentsInception (2010) &amp; BluRay Xtras 1080p\nInception (2010) 1080p.mp4\nFormat : MPEG-4\nFormat profile : Base Media\nCodec ID : isom\nFile size : 3.91 GiB\nDuration : 2h 28mn\nOverall bit rate mode : Variable\nOverall bit rate : 3 780 Kbps\nEncoded date : UTC 2015-07-30 01:38:07\nTagged date : UTC 2015-07-30 01:38:07\nWriting application : My MP4Box GUI 0.6.0.6 \n\nVideo\nID : 1\nFormat : AVC\nFormat/Info : Advanced Video Codec\nFormat profile : &lt;a class=&quot;__cf_email__&quot; href=&quot;/cdn-cgi/l/email-protection&quot; data-cfemail=&quot;7b33121c133b374f554b&quot;&gt;[email&amp;#160;protected]&lt;/a&gt;&lt;script data-cfhash='f9e31' type=&quot;text/javascript&quot;&gt;\n/* &lt;![CDATA[ */!function(){try{var t=&quot;currentScript&quot;in document?document.currentScript:function(){for(var t=document.getElementsByTagName(&quot;script&quot;),e=t.length;e--;)if(t[e].getAttribute(&quot;data-cfhash&quot;))return t[e]}();if(t&amp;&amp;t.previousSibling){var e,r,n,i,c=t.previousSibling,a=c.getAttribute(&quot;data-cfemail&quot;);if(a){for(e=&quot;&quot;,r=parseInt(a.substr(0,2),16),n=2;a.length-n;n+=2)i=parseInt(a.substr(n,2),16)^r,e+=String.fromCharCode(i);e=document.createTextNode(e),c.parentNode.replaceChild(e,c)}t.parentNode.removeChild(t);}}catch(u){}}()/* ]]&gt; */&lt;/script&gt;\nFormat settings, CABAC : Yes\nFormat settings, ReFrames : 4 frames\nCodec ID : avc1\nCodec ID/Info : Advanced Video Coding\nDuration : 2h 28mn\nBit rate : 3 209 Kbps\nMaximum bit rate : 34.6 Mbps\nWidth : 1 920 pixels\nHeight : 1 080 pixels\nDisplay aspect ratio : 16:9\nFrame rate mode : Constant\nFrame rate : 23.976 fps\nColor space : YUV\nChroma subsampling : 4:2:0\nBit depth : 8 bits\nScan type : Progressive\nBits/(Pixel*Frame) : 0.065\nStream size : 3.32 GiB (85%)\nTitle : Inception.2010(Encode).h264\nWriting library : x264 core 142 r2479 dd79a61\nEncoded date : UTC 2015-07-30 01:38:07\nTagged date : UTC 2015-07-30 01:38:39\n\nAudio #1\nID : 2\nFormat : AC-3\nFormat/Info : Audio Coding 3\nMode extension : CM (complete main)\nFormat settings, Endianness : Big\nCodec ID : ac-3\nDuration : 2h 28mn\nBit rate mode : Constant\nBit rate : 448 Kbps\nChannel(s) : 6 channels\nChannel positions : Front: L C R, Side: L R, LFE\nSampling rate : 48.0 KHz\nBit depth : 16 bits\nCompression mode : Lossy\nStream size : 475 MiB (12%)\nTitle : Inception.2010.AC3.ac3\nEncoded date : UTC 2015-07-30 01:38:28\nTagged date : UTC 2015-07-30 01:38:39\n\nAudio #2\nID : 3\nFormat : AAC\nFormat/Info : Advanced Audio Codec\nFormat profile : LC\nCodec ID : 40\nDuration : 2h 28mn\nBit rate mode : Variable\nBit rate : 119 Kbps\nMaximum bit rate : 167 Kbps\nChannel(s) : 2 channels\nChannel positions : Front: L R\nSampling rate : 48.0 KHz\nCompression mode : Lossy\nStream size : 126 MiB (3%)\nTitle : Inception.2010.AAC.m4a\nEncoded date : UTC 2015-07-30 01:38:37\nTagged date : UTC 2015-07-30 01:38:39","torrent":{"xt":"urn:btih:656bc2894facdaf9783e7ca3a2b20ef1fc971a0c","amp;dn":"Inception+%282010%29+%26amp%3B+BluRay+Xtras+1080p","amp;tr":["udp%3A%2F%2Ftracker.openbittorrent.com%3A80","udp%3A%2F%2Fopen.demonii.com%3A1337","udp%3A%2F%2Ftracker.coppersurfer.tk%3A6969","udp%3A%2F%2Fexodus.desync.com%3A6969"],"infoHash":"656bc2894facdaf9783e7ca3a2b20ef1fc971a0c","infoHashBuffer":{"type":"Buffer","data":[101,107,194,137,79,172,218,249,120,62,124,163,162,178,14,241,252,151,26,12]},"announce":[],"urlList":[]}}